<svg id="visual" viewBox="0 0 370 540" width="370" height="540" xmlns="http://www.w3.org/2000/svg" xmlns:xlink="http://www.w3.org/1999/xlink" version="1.1"><path d="M0 197L20.5 205.7C41 214.3 82 231.7 123.2 222C164.3 212.3 205.7 175.7 246.8 171.2C288 166.7 329 194.3 349.5 208.2L370 222L370 0L349.5 0C329 0 288 0 246.8 0C205.7 0 164.3 0 123.2 0C82 0 41 0 20.5 0L0 0Z" fill="#b8516f"></path><path d="M0 115L20.5 116.5C41 118 82 121 123.2 140C164.3 159 205.7 194 246.8 197.8C288 201.7 329 174.3 349.5 160.7L370 147L370 0L349.5 0C329 0 288 0 246.8 0C205.7 0 164.3 0 123.2 0C82 0 41 0 20.5 0L0 0Z" fill="#a8425f"></path><path d="M0 147L20.5 134.8C41 122.7 82 98.3 123.2 97.5C164.3 96.7 205.7 119.3 246.8 135.7C288 152 329 162 349.5 167L370 172L370 0L349.5 0C329 0 288 0 246.8 0C205.7 0 164.3 0 123.2 0C82 0 41 0 20.5 0L0 0Z" fill="#993250"></path></svg>